<?xml version="1.0" encoding="us-ascii" standalone="no"?><svg xmlns="http://www.w3.org/2000/svg" xmlns:xlink="http://www.w3.org/1999/xlink" contentStyleType="text/css" height="1051px" preserveAspectRatio="none" style="width:1100px;height:1051px;background:#FFFFFF;" version="1.1" viewBox="0 0 1100 1051" width="1100px" zoomAndPan="magnify"><defs/><g><rect fill="#FFA07A" height="1039.5137" style="stroke:#181818;stroke-width:0.5;" width="497.5" x="94" y="6"/><text fill="#000000" font-family="sans-serif" font-size="13" font-weight="bold" lengthAdjust="spacing" textLength="86" x="299.75" y="18.5684">Raspberry Pi</text><rect fill="#ADD8E6" height="1039.5137" style="stroke:#181818;stroke-width:0.5;" width="383.5" x="657.5" y="6"/><text fill="#000000" font-family="sans-serif" font-size="13" font-weight="bold" lengthAdjust="spacing" textLength="71" x="813.75" y="18.5684">PC/Laptop</text><rect fill="#FFFFFF" height="71.6211" style="stroke:#181818;stroke-width:1.0;" width="10" x="170" y="564.2988"/><rect fill="#FFFFFF" height="71.6211" style="stroke:#181818;stroke-width:1.0;" width="10" x="334" y="635.9199"/><rect fill="#FFFFFF" height="71.6211" style="stroke:#181818;stroke-width:1.0;" width="10" x="837" y="847.0938"/><rect fill="#FFFFFF" height="154.5527" style="stroke:#181818;stroke-width:1.0;" width="10" x="968" y="802.4727"/><rect fill="none" height="121.5078" style="stroke:#000000;stroke-width:1.5;" width="331.5" x="266" y="149.4199"/><rect fill="none" height="182.1289" style="stroke:#000000;stroke-width:1.5;" width="356" x="460.5" y="329.5488"/><rect fill="none" height="46.6211" style="stroke:#000000;stroke-width:1.5;" width="336" x="470.5" y="398.4805"/><rect fill="none" height="248.4844" style="stroke:#000000;stroke-width:1.5;" width="877.5" x="10" y="525.6777"/><line style="stroke:#181818;stroke-width:0.5;stroke-dasharray:5.0,5.0;" x1="54" x2="54" y1="87.7988" y2="966.0254"/><line style="stroke:#181818;stroke-width:0.5;stroke-dasharray:5.0,5.0;" x1="175" x2="175" y1="87.7988" y2="966.0254"/><line style="stroke:#181818;stroke-width:0.5;stroke-dasharray:5.0,5.0;" x1="339" x2="339" y1="87.7988" y2="966.0254"/><line style="stroke:#181818;stroke-width:0.5;stroke-dasharray:5.0,5.0;" x1="533.5" x2="533.5" y1="87.7988" y2="966.0254"/><line style="stroke:#181818;stroke-width:0.5;stroke-dasharray:5.0,5.0;" x1="728.5" x2="728.5" y1="87.7988" y2="966.0254"/><line style="stroke:#181818;stroke-width:0.5;stroke-dasharray:5.0,5.0;" x1="841.5" x2="841.5" y1="87.7988" y2="966.0254"/><line style="stroke:#181818;stroke-width:0.5;stroke-dasharray:5.0,5.0;" x1="973" x2="973" y1="87.7988" y2="966.0254"/><line style="stroke:#181818;stroke-width:0.5;stroke-dasharray:5.0,5.0;" x1="1079.5" x2="1079.5" y1="87.7988" y2="966.0254"/><rect fill="#E2E2F0" height="30.4883" rx="2.5" ry="2.5" style="stroke:#181818;stroke-width:0.5;" width="68" x="20" y="56.3105"/><text fill="#000000" font-family="sans-serif" font-size="14" lengthAdjust="spacing" textLength="54" x="27" y="76.8457">Sensors</text><rect fill="#E2E2F0" height="30.4883" rx="2.5" ry="2.5" style="stroke:#181818;stroke-width:0.5;" width="68" x="20" y="965.0254"/><text fill="#000000" font-family="sans-serif" font-size="14" lengthAdjust="spacing" textLength="54" x="27" y="985.5605">Sensors</text><rect fill="#E2E2F0" height="30.4883" rx="2.5" ry="2.5" style="stroke:#181818;stroke-width:0.5;" width="154" x="98" y="56.3105"/><text fill="#000000" font-family="sans-serif" font-size="14" lengthAdjust="spacing" textLength="140" x="105" y="76.8457">Sensor_Data_Reader</text><rect fill="#E2E2F0" height="30.4883" rx="2.5" ry="2.5" style="stroke:#181818;stroke-width:0.5;" width="154" x="98" y="965.0254"/><text fill="#000000" font-family="sans-serif" font-size="14" lengthAdjust="spacing" textLength="140" x="105" y="985.5605">Sensor_Data_Reader</text><rect fill="#E2E2F0" height="30.4883" rx="2.5" ry="2.5" style="stroke:#181818;stroke-width:0.5;" width="126" x="276" y="56.3105"/><text fill="#000000" font-family="sans-serif" font-size="14" lengthAdjust="spacing" textLength="112" x="283" y="76.8457">MQTT_Publisher</text><rect fill="#E2E2F0" height="30.4883" rx="2.5" ry="2.5" style="stroke:#181818;stroke-width:0.5;" width="126" x="276" y="965.0254"/><text fill="#000000" font-family="sans-serif" font-size="14" lengthAdjust="spacing" textLength="112" x="283" y="985.5605">MQTT_Publisher</text><rect fill="#E2E2F0" height="30.4883" rx="2.5" ry="2.5" style="stroke:#181818;stroke-width:0.5;" width="107" x="480.5" y="56.3105"/><text fill="#000000" font-family="sans-serif" font-size="14" lengthAdjust="spacing" textLength="93" x="487.5" y="76.8457">MQTT_Broker</text><rect fill="#E2E2F0" height="30.4883" rx="2.5" ry="2.5" style="stroke:#181818;stroke-width:0.5;" width="107" x="480.5" y="965.0254"/><text fill="#000000" font-family="sans-serif" font-size="14" lengthAdjust="spacing" textLength="93" x="487.5" y="985.5605">MQTT_Broker</text><rect fill="#E2E2F0" height="30.4883" rx="2.5" ry="2.5" style="stroke:#181818;stroke-width:0.5;" width="135" x="661.5" y="56.3105"/><text fill="#000000" font-family="sans-serif" font-size="14" lengthAdjust="spacing" textLength="121" x="668.5" y="76.8457">MQTT_Subscriber</text><rect fill="#E2E2F0" height="30.4883" rx="2.5" ry="2.5" style="stroke:#181818;stroke-width:0.5;" width="135" x="661.5" y="965.0254"/><text fill="#000000" font-family="sans-serif" font-size="14" lengthAdjust="spacing" textLength="121" x="668.5" y="985.5605">MQTT_Subscriber</text><text fill="#000000" font-family="sans-serif" font-size="14" lengthAdjust="spacing" textLength="65" x="806.5" y="84.8457">SensorDB</text><path d="M824,35.3105 C824,25.3105 842,25.3105 842,25.3105 C842,25.3105 860,25.3105 860,35.3105 L860,61.3105 C860,71.3105 842,71.3105 842,71.3105 C842,71.3105 824,71.3105 824,61.3105 L824,35.3105 " fill="#E2E2F0" style="stroke:#181818;stroke-width:1.5;"/><path d="M824,35.3105 C824,45.3105 842,45.3105 842,45.3105 C842,45.3105 860,45.3105 860,35.3105 " fill="none" style="stroke:#181818;stroke-width:1.5;"/><text fill="#000000" font-family="sans-serif" font-size="14" lengthAdjust="spacing" textLength="65" x="806.5" y="978.5605">SensorDB</text><path d="M824,991.5137 C824,981.5137 842,981.5137 842,981.5137 C842,981.5137 860,981.5137 860,991.5137 L860,1017.5137 C860,1027.5137 842,1027.5137 842,1027.5137 C842,1027.5137 824,1027.5137 824,1017.5137 L824,991.5137 " fill="#E2E2F0" style="stroke:#181818;stroke-width:1.5;"/><path d="M824,991.5137 C824,1001.5137 842,1001.5137 842,1001.5137 C842,1001.5137 860,1001.5137 860,991.5137 " fill="none" style="stroke:#181818;stroke-width:1.5;"/><rect fill="#E2E2F0" height="30.4883" rx="2.5" ry="2.5" style="stroke:#181818;stroke-width:0.5;" width="128" x="909" y="56.3105"/><text fill="#000000" font-family="sans-serif" font-size="14" lengthAdjust="spacing" textLength="114" x="916" y="76.8457">Web_Application</text><rect fill="#E2E2F0" height="30.4883" rx="2.5" ry="2.5" style="stroke:#181818;stroke-width:0.5;" width="128" x="909" y="965.0254"/><text fill="#000000" font-family="sans-serif" font-size="14" lengthAdjust="spacing" textLength="114" x="916" y="985.5605">Web_Application</text><text fill="#000000" font-family="sans-serif" font-size="14" lengthAdjust="spacing" textLength="31" x="1061.5" y="84.8457">User</text><ellipse cx="1080" cy="19.8105" fill="#E2E2F0" rx="8" ry="8" style="stroke:#181818;stroke-width:0.5;"/><path d="M1080,27.8105 L1080,54.8105 M1067,35.8105 L1093,35.8105 M1080,54.8105 L1067,69.8105 M1080,54.8105 L1093,69.8105 " fill="none" style="stroke:#181818;stroke-width:0.5;"/><text fill="#000000" font-family="sans-serif" font-size="14" lengthAdjust="spacing" textLength="31" x="1061.5" y="978.5605">User</text><ellipse cx="1080" cy="990.0137" fill="#E2E2F0" rx="8" ry="8" style="stroke:#181818;stroke-width:0.5;"/><path d="M1080,998.0137 L1080,1025.0137 M1067,1006.0137 L1093,1006.0137 M1080,1025.0137 L1067,1040.0137 M1080,1025.0137 L1093,1040.0137 " fill="none" style="stroke:#181818;stroke-width:0.5;"/><rect fill="#FFFFFF" height="71.6211" style="stroke:#181818;stroke-width:1.0;" width="10" x="170" y="564.2988"/><rect fill="#FFFFFF" height="71.6211" style="stroke:#181818;stroke-width:1.0;" width="10" x="334" y="635.9199"/><rect fill="#FFFFFF" height="71.6211" style="stroke:#181818;stroke-width:1.0;" width="10" x="837" y="847.0938"/><rect fill="#FFFFFF" height="154.5527" style="stroke:#181818;stroke-width:1.0;" width="10" x="968" y="802.4727"/><polygon fill="#181818" points="522,130.4199,532,134.4199,522,138.4199,526,134.4199" style="stroke:#181818;stroke-width:1.0;"/><line style="stroke:#181818;stroke-width:1.0;" x1="339" x2="528" y1="134.4199" y2="134.4199"/><text fill="#000000" font-family="sans-serif" font-size="13" lengthAdjust="spacing" textLength="98" x="346" y="114.3672">Send request to</text><text fill="#000000" font-family="sans-serif" font-size="13" lengthAdjust="spacing" textLength="131" x="346" y="129.6777">establish connection</text><path d="M266,149.4199 L328,149.4199 L328,156.7305 L318,166.7305 L266,166.7305 L266,149.4199 " fill="#EEEEEE" style="stroke:#000000;stroke-width:1.5;"/><rect fill="none" height="121.5078" style="stroke:#000000;stroke-width:1.5;" width="331.5" x="266" y="149.4199"/><text fill="#000000" font-family="sans-serif" font-size="13" font-weight="bold" lengthAdjust="spacing" textLength="17" x="281" y="162.9883">alt</text><text fill="#000000" font-family="sans-serif" font-size="11" font-weight="bold" lengthAdjust="spacing" textLength="51" x="343" y="162.0547">[success]</text><polygon fill="#181818" points="350,199.3516,340,203.3516,350,207.3516,346,203.3516" style="stroke:#181818;stroke-width:1.0;"/><line style="stroke:#181818;stroke-width:1.0;" x1="344" x2="533" y1="203.3516" y2="203.3516"/><text fill="#000000" font-family="sans-serif" font-size="13" lengthAdjust="spacing" textLength="91" x="356" y="183.2988">Send response</text><text fill="#000000" font-family="sans-serif" font-size="13" lengthAdjust="spacing" textLength="146" x="356" y="198.6094">connection established</text><line style="stroke:#000000;stroke-width:1.0;stroke-dasharray:2.0,2.0;" x1="266" x2="597.5" y1="212.3516" y2="212.3516"/><text fill="#000000" font-family="sans-serif" font-size="11" font-weight="bold" lengthAdjust="spacing" textLength="45" x="271" y="222.9863">[failure]</text><polygon fill="#181818" points="350,258.9277,340,262.9277,350,266.9277,346,262.9277" style="stroke:#181818;stroke-width:1.0;"/><line style="stroke:#181818;stroke-width:1.0;" x1="344" x2="533" y1="262.9277" y2="262.9277"/><text fill="#000000" font-family="sans-serif" font-size="13" lengthAdjust="spacing" textLength="91" x="356" y="242.875">Send response</text><text fill="#000000" font-family="sans-serif" font-size="13" lengthAdjust="spacing" textLength="171" x="356" y="258.1855">connection not established</text><polygon fill="#181818" points="545,310.5488,535,314.5488,545,318.5488,541,314.5488" style="stroke:#181818;stroke-width:1.0;"/><line style="stroke:#181818;stroke-width:1.0;" x1="539" x2="728" y1="314.5488" y2="314.5488"/><text fill="#000000" font-family="sans-serif" font-size="13" lengthAdjust="spacing" textLength="98" x="551" y="294.4961">Send request to</text><text fill="#000000" font-family="sans-serif" font-size="13" lengthAdjust="spacing" textLength="131" x="551" y="309.8066">establish connection</text><path d="M460.5,329.5488 L522.5,329.5488 L522.5,336.8594 L512.5,346.8594 L460.5,346.8594 L460.5,329.5488 " fill="#EEEEEE" style="stroke:#000000;stroke-width:1.5;"/><rect fill="none" height="182.1289" style="stroke:#000000;stroke-width:1.5;" width="356" x="460.5" y="329.5488"/><text fill="#000000" font-family="sans-serif" font-size="13" font-weight="bold" lengthAdjust="spacing" textLength="17" x="475.5" y="343.1172">alt</text><text fill="#000000" font-family="sans-serif" font-size="11" font-weight="bold" lengthAdjust="spacing" textLength="51" x="537.5" y="342.1836">[success]</text><polygon fill="#181818" points="717,379.4805,727,383.4805,717,387.4805,721,383.4805" style="stroke:#181818;stroke-width:1.0;"/><line style="stroke:#181818;stroke-width:1.0;" x1="534" x2="723" y1="383.4805" y2="383.4805"/><text fill="#000000" font-family="sans-serif" font-size="13" lengthAdjust="spacing" textLength="91" x="541" y="363.4277">Send response</text><text fill="#000000" font-family="sans-serif" font-size="13" lengthAdjust="spacing" textLength="146" x="541" y="378.7383">connection established</text><path d="M470.5,398.4805 L544.5,398.4805 L544.5,405.791 L534.5,415.791 L470.5,415.791 L470.5,398.4805 " fill="#EEEEEE" style="stroke:#000000;stroke-width:1.5;"/><rect fill="none" height="46.6211" style="stroke:#000000;stroke-width:1.5;" width="336" x="470.5" y="398.4805"/><text fill="#000000" font-family="sans-serif" font-size="13" font-weight="bold" lengthAdjust="spacing" textLength="29" x="485.5" y="412.0488">loop</text><text fill="#000000" font-family="sans-serif" font-size="11" font-weight="bold" lengthAdjust="spacing" textLength="72" x="559.5" y="411.1152">[indefinitely]</text><polygon fill="#181818" points="545,433.1016,535,437.1016,545,441.1016,541,437.1016" style="stroke:#181818;stroke-width:1.0;"/><line style="stroke:#181818;stroke-width:1.0;" x1="539" x2="728" y1="437.1016" y2="437.1016"/><text fill="#000000" font-family="sans-serif" font-size="13" lengthAdjust="spacing" textLength="128" x="551" y="432.3594">Listens for response</text><line style="stroke:#000000;stroke-width:1.0;stroke-dasharray:2.0,2.0;" x1="460.5" x2="816.5" y1="453.1016" y2="453.1016"/><text fill="#000000" font-family="sans-serif" font-size="11" font-weight="bold" lengthAdjust="spacing" textLength="45" x="465.5" y="463.7363">[failure]</text><polygon fill="#181818" points="717,499.6777,727,503.6777,717,507.6777,721,503.6777" style="stroke:#181818;stroke-width:1.0;"/><line style="stroke:#181818;stroke-width:1.0;" x1="534" x2="723" y1="503.6777" y2="503.6777"/><text fill="#000000" font-family="sans-serif" font-size="13" lengthAdjust="spacing" textLength="91" x="541" y="483.625">Send response</text><text fill="#000000" font-family="sans-serif" font-size="13" lengthAdjust="spacing" textLength="171" x="541" y="498.9355">connection not established</text><path d="M10,525.6777 L84,525.6777 L84,532.9883 L74,542.9883 L10,542.9883 L10,525.6777 " fill="#EEEEEE" style="stroke:#000000;stroke-width:1.5;"/><rect fill="none" height="248.4844" style="stroke:#000000;stroke-width:1.5;" width="877.5" x="10" y="525.6777"/><text fill="#000000" font-family="sans-serif" font-size="13" font-weight="bold" lengthAdjust="spacing" textLength="29" x="25" y="539.2461">loop</text><text fill="#000000" font-family="sans-serif" font-size="11" font-weight="bold" lengthAdjust="spacing" textLength="72" x="99" y="538.3125">[indefinitely]</text><polygon fill="#181818" points="158,560.2988,168,564.2988,158,568.2988,162,564.2988" style="stroke:#181818;stroke-width:1.0;"/><line style="stroke:#181818;stroke-width:1.0;" x1="54" x2="164" y1="564.2988" y2="564.2988"/><text fill="#000000" font-family="sans-serif" font-size="13" lengthAdjust="spacing" textLength="68" x="61" y="559.5566">Sends data</text><line style="stroke:#181818;stroke-width:1.0;" x1="180" x2="222" y1="593.6094" y2="593.6094"/><line style="stroke:#181818;stroke-width:1.0;" x1="222" x2="222" y1="593.6094" y2="606.6094"/><line style="stroke:#181818;stroke-width:1.0;" x1="181" x2="222" y1="606.6094" y2="606.6094"/><polygon fill="#181818" points="191,602.6094,181,606.6094,191,610.6094,187,606.6094" style="stroke:#181818;stroke-width:1.0;"/><text fill="#000000" font-family="sans-serif" font-size="13" lengthAdjust="spacing" textLength="95" x="187" y="588.8672">Normalize data</text><polygon fill="#181818" points="322,631.9199,332,635.9199,322,639.9199,326,635.9199" style="stroke:#181818;stroke-width:1.0;"/><line style="stroke:#181818;stroke-width:1.0;" x1="175" x2="328" y1="635.9199" y2="635.9199"/><text fill="#000000" font-family="sans-serif" font-size="13" lengthAdjust="spacing" textLength="135" x="182" y="631.1777">Send normalized data</text><line style="stroke:#181818;stroke-width:1.0;" x1="344" x2="386" y1="665.2305" y2="665.2305"/><line style="stroke:#181818;stroke-width:1.0;" x1="386" x2="386" y1="665.2305" y2="678.2305"/><line style="stroke:#181818;stroke-width:1.0;" x1="345" x2="386" y1="678.2305" y2="678.2305"/><polygon fill="#181818" points="355,674.2305,345,678.2305,355,682.2305,351,678.2305" style="stroke:#181818;stroke-width:1.0;"/><text fill="#000000" font-family="sans-serif" font-size="13" lengthAdjust="spacing" textLength="74" x="351" y="660.4883">Jsonify data</text><polygon fill="#181818" points="522,703.541,532,707.541,522,711.541,526,707.541" style="stroke:#181818;stroke-width:1.0;"/><line style="stroke:#181818;stroke-width:1.0;" x1="339" x2="528" y1="707.541" y2="707.541"/><text fill="#000000" font-family="sans-serif" font-size="13" lengthAdjust="spacing" textLength="61" x="346" y="702.7988">Send data</text><polygon fill="#181818" points="717,732.8516,727,736.8516,717,740.8516,721,736.8516" style="stroke:#181818;stroke-width:1.0;"/><line style="stroke:#181818;stroke-width:1.0;" x1="534" x2="723" y1="736.8516" y2="736.8516"/><text fill="#000000" font-family="sans-serif" font-size="13" lengthAdjust="spacing" textLength="61" x="541" y="732.1094">Send data</text><polygon fill="#181818" points="830,762.1621,840,766.1621,830,770.1621,834,766.1621" style="stroke:#181818;stroke-width:1.0;"/><line style="stroke:#181818;stroke-width:1.0;" x1="729" x2="836" y1="766.1621" y2="766.1621"/><text fill="#000000" font-family="sans-serif" font-size="13" lengthAdjust="spacing" textLength="63" x="736" y="761.4199">Store data</text><polygon fill="#181818" points="989,798.4727,979,802.4727,989,806.4727,985,802.4727" style="stroke:#181818;stroke-width:1.0;"/><line style="stroke:#181818;stroke-width:1.0;" x1="983" x2="1079" y1="802.4727" y2="802.4727"/><text fill="#000000" font-family="sans-serif" font-size="13" lengthAdjust="spacing" textLength="81" x="995" y="797.7305">Refresh page</text><polygon fill="#181818" points="858,843.0938,848,847.0938,858,851.0938,854,847.0938" style="stroke:#181818;stroke-width:1.0;"/><line style="stroke:#181818;stroke-width:1.0;" x1="852" x2="967" y1="847.0938" y2="847.0938"/><text fill="#000000" font-family="sans-serif" font-size="13" lengthAdjust="spacing" textLength="98" x="864" y="827.041">Send request to</text><text fill="#000000" font-family="sans-serif" font-size="13" lengthAdjust="spacing" textLength="63" x="864" y="842.3516">fetch data</text><line style="stroke:#181818;stroke-width:1.0;" x1="847" x2="889" y1="876.4043" y2="876.4043"/><line style="stroke:#181818;stroke-width:1.0;" x1="889" x2="889" y1="876.4043" y2="889.4043"/><line style="stroke:#181818;stroke-width:1.0;" x1="848" x2="889" y1="889.4043" y2="889.4043"/><polygon fill="#181818" points="858,885.4043,848,889.4043,858,893.4043,854,889.4043" style="stroke:#181818;stroke-width:1.0;"/><text fill="#000000" font-family="sans-serif" font-size="13" lengthAdjust="spacing" textLength="77" x="854" y="871.6621">fetches data</text><polygon fill="#181818" points="956,914.7148,966,918.7148,956,922.7148,960,918.7148" style="stroke:#181818;stroke-width:1.0;"/><line style="stroke:#181818;stroke-width:1.0;" x1="842" x2="962" y1="918.7148" y2="918.7148"/><text fill="#000000" font-family="sans-serif" font-size="13" lengthAdjust="spacing" textLength="91" x="849" y="913.9727">Send response</text><polygon fill="#181818" points="1068,944.0254,1078,948.0254,1068,952.0254,1072,948.0254" style="stroke:#181818;stroke-width:1.0;"/><line style="stroke:#181818;stroke-width:1.0;" x1="978" x2="1074" y1="948.0254" y2="948.0254"/><text fill="#000000" font-family="sans-serif" font-size="13" lengthAdjust="spacing" textLength="78" x="985" y="943.2832">Display data</text><!--SRC=[jLHBRnCn4BxxLupAEUAUGoH2JYXK8IdgfL8qQyys5gvjR2zg-FNClf-5I1Lxyjept_VDqsD8McgFDi69R7GX2f6vLxWxOlGPXN25Wxw33tlzV4adD2_E2ZzpEkymuVb8g2YCdhz-UtWu7uhCw7XPUje6zuFloIfWreRwyFdZ7drolkNTceBclgSYYp9e5YaKqsSOgP6psuwi7oaxV_BUQ8b9i_wE3MLo0Rv7HX1ZfQlDGDwwX5KGw6T1CK5oy6JvW9KjI6SjoGfOe4aG2oafHX30tm2bWUmeEjJedMNfJxP7WWwUb233hpbgKmHw5wXrQGniLHDtdyh_5tZFSNFa9P1npeEsYd9jTI9pxU7VLBtNCN4ZGCxLRLagjpBY6z9vezJ5V2xhRMPhjPdFIqqHeUpXEdVSbleN9beQhXviUBsCU-_22nhzcohiDrqNEyYslgftLlGtPMFfay7lyZoTi07lb-Yipgyztxz7SadQXFdM4ezPXwtLxXGsv7NH9BEgTRavLfl9Ubd3aN9kc0juV2RHwPfkeSd_Y6SsTJabUQcP9pNWNTSUXX2L0zLTDJ2OQHsrjvXLcD5dEikerx3JqHkig_K7]--></g></svg>